<svg xmlns="http://www.w3.org/2000/svg" width="62" height="62" fill="none"><path fill="#C9F31D" fill-rule="evenodd" d="M16.857 29.078A14.16 14.16 0 0 0 16.736 31c-.004.645.037 1.287.121 1.922v2.934L11.527 31l5.33-4.855v2.933Zm25.567-4.62.032.052-.11-.075-.032-.053.11.075Zm2.719 8.464c.083-.635.125-1.277.121-1.922a14.17 14.17 0 0 0-.121-1.922v-2.732l.881.602L50.473 31l-5.33 4.855v-2.933Zm-1.101 3.937c.034-.079.068-.157.1-.236v.144l-.1.091Zm-4.39 5.627a14.147 14.147 0 0 0 2.705-2.74l1.786-1.627v6.23H37.97l1.681-1.863Zm-3.28 1.863c.136-.053.27-.109.401-.167l-.15.167h-.25Zm-5.373 1h4.721L31 50.581l-4.72-5.232h4.719Zm14.939-18.48.086.079L51.958 31l8.52 7.762a3.788 3.788 0 0 1-2.552 6.587H45.143v12.595a3.769 3.769 0 0 1-6.567 2.525L31 52.073l-7.576 8.396a3.769 3.769 0 0 1-6.567-2.525V45.349H4.073a3.788 3.788 0 0 1-2.55-6.587L10.043 31l-8.52-7.762a3.788 3.788 0 0 1 2.55-6.587h12.784V4.056a3.769 3.769 0 0 1 6.567-2.525L31 9.927l7.576-8.396a3.769 3.769 0 0 1 6.567 2.525v12.595h12.783a3.788 3.788 0 0 1 2.551 6.587L51.957 31l-6.02-4.131Zm0 0-.795-.546v-.178l.795.724ZM30.326 10.673l-7.644-8.472a2.769 2.769 0 0 0-4.825 1.855v12.595h7.076l5.393-5.978Zm-13.469 6.978H4.073a2.788 2.788 0 0 0-1.877 4.848l8.589 7.825 6.072-5.532V17.65Zm1 6.23v-6.23h6.173l-1.682 1.863a14.152 14.152 0 0 0-2.705 2.74l-1.786 1.627Zm0 1.352.101-.091a9.742 9.742 0 0 0-.1.235v-.143ZM31 11.42l4.72 5.232h-4.719.045-4.767L31 11.419Zm6.067 5.232-5.394-5.978 7.645-8.472a2.769 2.769 0 0 1 4.825 1.855v12.595h-7.076Zm.903 1h6.173v6.23l-1.787-1.628a14.146 14.146 0 0 0-2.705-2.739l-1.681-1.863Zm-1.347 0 .15.167a13.636 13.636 0 0 0-.4-.167h.25Zm-3.39.498 9.081 6.233c-1.984-3.322-5.37-5.558-9.081-6.233Zm-.121-.021-.558-.381.113.014.566.389-.07-.013-.051-.009Zm0 0 9.234 6.307c1.107 1.874 1.77 4.09 1.796 6.565-.084 7.77-6.437 12.996-13.142 13.064C24.294 43.996 17.942 38.77 17.858 31 17.94 23.23 24.294 18.004 31 17.936c.71.007 1.416.072 2.112.192ZM19.643 39.746a14.15 14.15 0 0 0 2.705 2.74l1.682 1.863h-6.173v-6.23l1.786 1.627Zm-1.786 5.603h7.076l5.393 5.978-7.644 8.472a2.77 2.77 0 0 1-4.825-1.855V45.349Zm26.286 12.595V45.349h-7.076l-5.394 5.978 7.645 8.472a2.769 2.769 0 0 0 4.825-1.855Zm13.783-13.595H45.143v-7.14l6.072-5.533 8.589 7.825a2.788 2.788 0 0 1-1.878 4.848Zm-32.3 0a12.529 12.529 0 0 1-.4-.167l.151.167h.25Zm-.249-26.698h.25c-.135.053-.268.109-.4.167l.15-.167Zm-7.52 18.972v.144l.101.091a13.91 13.91 0 0 1-.1-.235Zm26.286-11.246v-.143l-.101-.093c.034.079.068.157.1.236Zm1-.585 6.072 5.532 8.589-7.825a2.788 2.788 0 0 0-1.878-4.848H45.143v7.14Zm-34.358 6.884-8.589 7.825a2.788 2.788 0 0 0 1.877 4.848h12.784v-7.14l-6.072-5.533Z" clip-rule="evenodd"/></svg>